<svg xmlns="http://www.w3.org/2000/svg" viewBox="0 0 50 50"><defs><style>.cls-1{fill:#fff;}.cls-2{fill:#ce2017;}</style></defs><g id="CRs"><circle class="cls-1" cx="25" cy="25" r="22.77"/><path d="M25,3.23A21.77,21.77,0,1,1,3.23,25,21.8,21.8,0,0,1,25,3.23m0-2A23.77,23.77,0,0,0,1.23,25h0a23.77,23.77,0,0,0,47.54,0h0A23.77,23.77,0,0,0,25,1.23Z"/><polygon class="cls-2" points="25 5.32 29.5 19.17 44.07 19.17 32.29 27.74 36.79 41.6 25 33.03 13.21 41.6 17.71 27.74 5.93 19.17 20.5 19.17 25 5.32"/><path d="M38.69,44.21,25,34.27,11.31,44.21l5.23-16.09L2.85,18.17H19.77L25,2.08l5.23,16.09H47.15l-13.69,10ZM25,31.8,34.89,39,31.11,27.36,41,20.17H28.78L25,8.55,21.22,20.17H9l9.89,7.19L15.11,39Z"/></g></svg>