<svg xmlns="http://www.w3.org/2000/svg" viewBox="0 0 50 50"><defs><style>.cls-1{fill:#fff;}.cls-2{fill:#ce2017;}</style></defs><g id="EC"><path id="white" class="cls-1" d="M25,3.63A21.39,21.39,0,0,0,3.63,25V46.37H46.37V25A21.39,21.39,0,0,0,25,3.63Z"/><path id="BLACK_HOLE" d="M39,25V39H11V25a14,14,0,0,1,28,0Z"/><path id="RED_PART" class="cls-2" d="M25,2A23.05,23.05,0,0,0,2,25V48H48V25A23.05,23.05,0,0,0,25,2ZM42.44,42.44H7.56V25a17.44,17.44,0,0,1,34.88,0Z"/><path id="CTL_in" d="M25,7.56A17.46,17.46,0,0,0,7.56,25V42.44H42.44V25A17.46,17.46,0,0,0,25,7.56ZM41.44,41.44H8.56V25a16.44,16.44,0,0,1,32.88,0Z"/><path id="CTL_out" d="M25,1A24.06,24.06,0,0,0,1,25V49H49V25A24.06,24.06,0,0,0,25,1ZM48,48H2V25A23,23,0,0,1,48,25Z"/></g></svg>