<svg xmlns="http://www.w3.org/2000/svg" viewBox="0 0 50 50"><defs><style>.cls-1{fill:#fff;}.cls-2{fill:#ce2017;}</style></defs><g id="ESc"><path id="white" class="cls-1" d="M25,2.9A22.09,22.09,0,1,0,47.09,25,22.12,22.12,0,0,0,25,2.9Z"/><path id="ctl_out" d="M25,1A24,24,0,1,0,49,25,24,24,0,0,0,25,1Zm0,47A23,23,0,1,1,48,25,23,23,0,0,1,25,48Z"/><path id="red_circle" class="cls-2" d="M25,2A23,23,0,1,0,48,25,23,23,0,0,0,25,2ZM37.92,37.91A18.24,18.24,0,1,1,43.29,25,18.16,18.16,0,0,1,37.92,37.91Z"/><path id="ctl_in" d="M37.92,12.06A18.24,18.24,0,1,0,43.29,25,18.2,18.2,0,0,0,37.92,12.06Zm-.7,25.14A17.25,17.25,0,1,1,42.29,25,17.25,17.25,0,0,1,37.22,37.2Z"/><path id="stairs" d="M25,9.07A15.92,15.92,0,1,0,40.91,25,15.93,15.93,0,0,0,25,9.07ZM14.12,14.81l7.7,7.7a3.9,3.9,0,0,0-.83,2H10.1A14.77,14.77,0,0,1,14.12,14.81Zm-4,10.68H21a3.9,3.9,0,0,0,.83,2l-7.7,7.7A14.82,14.82,0,0,1,10.1,25.49Zm14.4,14.4a14.77,14.77,0,0,1-9.68-4l7.7-7.7a3.9,3.9,0,0,0,2,.83ZM24.5,21a3.9,3.9,0,0,0-2,.83l-7.7-7.7a14.71,14.71,0,0,1,9.68-4Zm15.4,3.51H29a3.9,3.9,0,0,0-.83-2l7.7-7.7A14.77,14.77,0,0,1,39.9,24.49ZM25.5,10.08a14.71,14.71,0,0,1,9.68,4l-7.7,7.7a3.9,3.9,0,0,0-2-.83Zm0,29.81V29a3.9,3.9,0,0,0,2-.83l7.7,7.7A14.77,14.77,0,0,1,25.5,39.89Zm10.38-4.72-7.7-7.7a3.9,3.9,0,0,0,.83-2H39.9A14.82,14.82,0,0,1,35.88,35.17Z"/></g></svg>