<svg xmlns="http://www.w3.org/2000/svg" viewBox="0 0 50 50"><defs><style>.cls-1{fill:#fff;}.cls-2{fill:#ce2017;}</style></defs><g id="ESd"><path id="white" class="cls-1" d="M4.47,4.47V45.53H45.53V4.47Z"/><path id="red_square" class="cls-2" d="M2.23,2.23V47.77H47.77V2.23ZM43.11,43.11H6.89V6.89H43.11Z"/><path id="ctl_out" d="M1.23,1.23V48.77H48.77V1.23ZM47.77,47.77H2.23V2.23H47.77Z"/><path id="ctl_in" d="M6.89,6.89V43.11H43.11V6.89ZM42.11,42.11H7.89V7.89H42.11Z"/><polygon id="stair" points="38.5 34 38.5 38.5 11.5 38.5 11.5 11.5 16 11.5 16 16 20.5 16 20.5 20.5 25 20.5 25 25 29.5 25 29.5 29.5 34 29.5 34 34 38.5 34"/></g></svg>