<svg xmlns="http://www.w3.org/2000/svg" viewBox="0 0 50 50"><defs><style>.cls-1{fill:#fff;}.cls-2{fill:#ce2017;}</style></defs><g id="GT"><rect class="cls-1" x="4.51" y="4.51" width="40.99" height="40.99"/><path class="cls-2" d="M2.23,2.23V47.77H47.77V2.23ZM43.11,43.11H6.89V6.89H43.11Z"/><path d="M1.23,1.23V48.77H48.77V1.23ZM47.77,47.77H2.23V2.23H47.77Z"/><polygon points="14.42 15.83 14.42 34.17 17.38 31.21 17.38 18.79 14.42 15.83"/><path d="M6.89,6.89V43.11H43.11V6.89ZM42.11,40.7l-6.53-6.53v1.41H34.17l6.53,6.53H9.3l6.53-6.53H14.42V34.17L7.89,40.7V9.3l6.53,6.53V14.42h1.41L9.3,7.89H40.7l-6.53,6.53h1.41v1.41L42.11,9.3Z"/><polygon points="32.62 18.79 32.62 31.21 35.58 34.17 35.58 15.83 32.62 18.79"/><polygon points="34.17 14.42 15.83 14.42 18.79 17.38 31.21 17.38 34.17 14.42"/><polygon points="31.21 32.62 18.79 32.62 15.83 35.58 34.17 35.58 31.21 32.62"/></g></svg>