<svg xmlns="http://www.w3.org/2000/svg" viewBox="0 0 50 50"><defs><style>.cls-1{fill:#fbb100;}.cls-2{fill:#ce2017;}</style></defs><g id="inscription_premier_niveau" data-name="inscription premier niveau"><circle class="cls-1" cx="25" cy="25" r="22.25"/><path d="M25,3.25A21.75,21.75,0,1,1,3.25,25,21.78,21.78,0,0,1,25,3.25m0-1A22.75,22.75,0,1,0,47.75,25,22.74,22.74,0,0,0,25,2.25Z"/><path class="cls-2" d="M25,48.51A23.51,23.51,0,1,1,48.51,25,23.54,23.54,0,0,1,25,48.51Zm0-41.3a17.82,17.82,0,1,0,12.57,5.22A17.68,17.68,0,0,0,25,7.21Z"/><path d="M25,2A23,23,0,1,1,2,25,23,23,0,0,1,25,2m0,41.3a18.32,18.32,0,1,0-12.93-5.37A18.17,18.17,0,0,0,25,43.29M25,1A24,24,0,1,0,49,25,24,24,0,0,0,25,1Zm0,41.3a17.33,17.33,0,1,1,12.21-5.07A17.23,17.23,0,0,1,25,42.29Z"/></g></svg>