<svg xmlns="http://www.w3.org/2000/svg" viewBox="0 0 50 50"><defs><style>.cls-1{fill:#8ba8fe;}.cls-2{fill:#2545e0;}</style></defs><g id="Inscription_deuxième_niveau" data-name="Inscription deuxième niveau"><circle class="cls-1" cx="25" cy="25" r="22.75"/><path class="cls-2" d="M25,48.51A23.51,23.51,0,1,1,48.51,25,23.54,23.54,0,0,1,25,48.51Zm0-41.3a17.82,17.82,0,1,0,12.57,5.22A17.68,17.68,0,0,0,25,7.21Z"/><path d="M25,2A23,23,0,1,1,2,25,23,23,0,0,1,25,2m0,41.3a18.33,18.33,0,1,0-12.92-5.37A18.17,18.17,0,0,0,25,43.29M25,1A24,24,0,1,0,49,25,24,24,0,0,0,25,1Zm0,41.3a17.31,17.31,0,1,1,12.22-5.07A17.25,17.25,0,0,1,25,42.29Z"/></g></svg>