<svg xmlns="http://www.w3.org/2000/svg" viewBox="0 0 50 50"><defs><style>.cls-1{fill:#d371c6;}.cls-2{fill:#2545e0;}</style></defs><g id="Inscription_troisième_niveau" data-name="Inscription troisième niveau"><circle class="cls-1" cx="25" cy="25" r="23"/><path class="cls-2" d="M25,48.51A23.51,23.51,0,1,1,48.51,25,23.54,23.54,0,0,1,25,48.51ZM25,6.86a18.16,18.16,0,1,0,12.82,5.32A18,18,0,0,0,25,6.86Z"/><path d="M25,2A23,23,0,1,1,2,25,23,23,0,0,1,25,2m0,41.65A18.63,18.63,0,0,0,38.17,11.83,18.63,18.63,0,1,0,11.83,38.17,18.48,18.48,0,0,0,25,43.64M25,1A24,24,0,1,0,49,25,24,24,0,0,0,25,1Zm0,41.65a17.65,17.65,0,1,1,12.47-5.17A17.62,17.62,0,0,1,25,42.64Z"/></g></svg>