<svg xmlns="http://www.w3.org/2000/svg" viewBox="0 0 50 50"><g id="logo_black"><path d="M46.73,23.42a2.27,2.27,0,0,0-1.64-.24,6.49,6.49,0,0,1-4.61-.66L36.9,20.45a12.93,12.93,0,0,0,1-5,13.25,13.25,0,0,0-.17-2.11l2.74-1.59a6.44,6.44,0,0,1,4.61-.66,2.3,2.3,0,1,0,.8-4.53.58.58,0,0,1-.43-.28.59.59,0,0,1,0-.52,2.26,2.26,0,0,0-.11-2.05,2.29,2.29,0,0,0-4.18.42,6.44,6.44,0,0,1-2.93,3.61l-2.06,1.2a12.91,12.91,0,0,0-22.3,0l-2.06-1.2A6.44,6.44,0,0,1,8.86,4.11a2.29,2.29,0,0,0-4.18-.42,2.26,2.26,0,0,0-.11,2.05.59.59,0,0,1,0,.52.58.58,0,0,1-.43.28,2.3,2.3,0,1,0,.8,4.53,6.44,6.44,0,0,1,4.61.66l2.74,1.59a13.25,13.25,0,0,0-.17,2.11,12.93,12.93,0,0,0,1,5L9.52,22.52a6.49,6.49,0,0,1-4.61.66,2.27,2.27,0,0,0-1.64.24,2.3,2.3,0,0,0,.84,4.28.59.59,0,0,1,.46.81,2.26,2.26,0,0,0,.11,2,2.28,2.28,0,0,0,3.13.86,2.24,2.24,0,0,0,1-1.28,6.46,6.46,0,0,1,2.93-3.62l3.84-2.22a12.89,12.89,0,0,0,18.74,0l3.84,2.22a6.46,6.46,0,0,1,2.93,3.62,2.24,2.24,0,0,0,1,1.28,2.28,2.28,0,0,0,3.13-.86,2.26,2.26,0,0,0,.11-2,.59.59,0,0,1,.46-.81,2.3,2.3,0,0,0,.84-4.28ZM25,23.73a8.31,8.31,0,1,1,8.31-8.3A8.3,8.3,0,0,1,25,23.73Z"/><path d="M32.05,31.46,25,47.52,17.92,31.45l.26.11a17.54,17.54,0,0,0,13.64,0Z"/></g></svg>