<svg xmlns="http://www.w3.org/2000/svg" viewBox="0 0 50 50"><defs><style>.cls-1{fill:#fff;}.cls-2{fill:#ce2017;}.cls-3{fill:#2545e0;}</style></defs><g id="PE"><circle id="WHITE" class="cls-1" cx="25" cy="25" r="22.05"/><path d="M25,1A24,24,0,1,0,49,25,24,24,0,0,0,25,1Zm0,47A23,23,0,1,1,48,25,23,23,0,0,1,25,48Z"/><path class="cls-2" d="M25,2A23,23,0,1,0,48,25,23,23,0,0,0,25,2ZM37.92,37.92A18.25,18.25,0,1,1,43.28,25,18.17,18.17,0,0,1,37.92,37.92Z"/><path d="M37.92,12.08A18.25,18.25,0,1,0,43.28,25,18.17,18.17,0,0,0,37.92,12.08ZM25,42.29a17.31,17.31,0,1,1,12.21-5.07A17.23,17.23,0,0,1,25,42.29Z"/><path class="cls-3" d="M37.77,18.37a14.23,14.23,0,0,1-5.52-.88,18.34,18.34,0,0,1-5.61-3.65l-.07-.06a19.9,19.9,0,0,0-4.06-3A14.86,14.86,0,0,1,25,10.61a14.44,14.44,0,0,1,12.77,7.76Z"/><path class="cls-3" d="M39.39,24.73A15.23,15.23,0,0,1,32.25,24a18.34,18.34,0,0,1-5.61-3.65l-.07-.06c-2-1.74-3.9-3.38-7.07-4a12,12,0,0,0-2.25-.21,14,14,0,0,0-4,.6,14.2,14.2,0,0,1,1.56-1.84,14.47,14.47,0,0,1,5.62-3.49,15,15,0,0,1,5.31,3.37,19.53,19.53,0,0,0,6,4,16.06,16.06,0,0,0,6.54.95A14.21,14.21,0,0,1,39.39,24.73Z"/><path class="cls-3" d="M39.36,26a14.4,14.4,0,0,1-1.15,4.71l-.21.47-.06.11a15.3,15.3,0,0,1-3-.17,14,14,0,0,1-2.13-.5l-.38-.13-.22-.08a18.34,18.34,0,0,1-5.61-3.65l-.07-.06c-2-1.73-3.88-3.36-7.07-4a11.92,11.92,0,0,0-2.25-.21,15.7,15.7,0,0,0-6.61,1.59,14.28,14.28,0,0,1,1.6-5.78,12.74,12.74,0,0,1,7-.84c2.82.54,4.59,2.05,6.48,3.67a19.53,19.53,0,0,0,6,4A16.54,16.54,0,0,0,39.36,26Z"/><path class="cls-3" d="M37.25,32.57a15.21,15.21,0,0,1-2.08,2.6,13.77,13.77,0,0,1-2.35,1.9L32.47,37l-.22-.08a18.34,18.34,0,0,1-5.61-3.65l-.09-.08c-.59-.51-1.19-1-1.81-1.5-.23-.18-.47-.35-.69-.5s-.51-.34-.78-.51A11.3,11.3,0,0,0,19.5,29.2,11.89,11.89,0,0,0,17.26,29a15.13,15.13,0,0,0-5.69,1.19,14.13,14.13,0,0,1-1-4.66A13.77,13.77,0,0,1,19.28,24c2.82.54,4.59,2.05,6.48,3.67a22.78,22.78,0,0,0,4.4,3.22,11.5,11.5,0,0,0,1.07.5c.15.07.36.16.58.24s.52.19.78.27A16.27,16.27,0,0,0,37.25,32.57Z"/><path class="cls-3" d="M31.41,37.89l-.42.2a14,14,0,0,1-4.75,1.24c-.44-.38-1-.82-1.5-1.23-.23-.18-.47-.35-.69-.5s-.51-.34-.78-.51a11.3,11.3,0,0,0-3.77-1.43,11.81,11.81,0,0,0-2.24-.21,13.4,13.4,0,0,0-2,.15l-.45-.43a14.55,14.55,0,0,1-2.58-3.49l-.18-.35a10,10,0,0,1,1.32-.47,12.21,12.21,0,0,1,5.89-.44,9.93,9.93,0,0,1,1.58.44,9.53,9.53,0,0,1,1.13.49,8.2,8.2,0,0,1,.87.5,24,24,0,0,1,2.9,2.24,22.78,22.78,0,0,0,4.4,3.22c.34.19.72.35,1.09.51Z"/><path class="cls-3" d="M24.34,39.38A14.1,14.1,0,0,1,19,38.09c-.31-.14-.63-.3-1-.5s-.55-.31-.82-.49l-.57-.39a12.17,12.17,0,0,1,2.64.17,9.93,9.93,0,0,1,1.58.44,10.74,10.74,0,0,1,1.13.49,8.73,8.73,0,0,1,.85.5A16.23,16.23,0,0,1,24.34,39.38Z"/></g></svg>