<svg xmlns="http://www.w3.org/2000/svg" viewBox="0 0 50 50"><defs><style>.cls-1{fill:#fff;}.cls-2{fill:#ce2017;}.cls-3{fill:#fbb100;}</style></defs><g id="PSc"><circle class="cls-1" cx="25" cy="25" r="22.25"/><path d="M25,1A24,24,0,1,0,49,25,24,24,0,0,0,25,1Zm0,47A23,23,0,1,1,48,25,23,23,0,0,1,25,48Z"/><path class="cls-2" d="M25,2A23,23,0,1,0,48,25,23,23,0,0,0,25,2ZM37.92,37.92A18.23,18.23,0,1,1,43.29,25,18.17,18.17,0,0,1,37.92,37.92Z"/><path d="M37.92,12.08A18.23,18.23,0,1,0,43.29,25,18.17,18.17,0,0,0,37.92,12.08Zm-.7,25.14A17.26,17.26,0,1,1,42.29,25,17.25,17.25,0,0,1,37.22,37.22Z"/><path class="cls-3" d="M37.52,25a12.53,12.53,0,1,1-3.67-8.85A12.43,12.43,0,0,1,37.52,25Z"/><path d="M35.26,14.74A14.49,14.49,0,1,0,39.52,25,14.48,14.48,0,0,0,35.26,14.74ZM25,37.52a12.53,12.53,0,1,1,8.85-3.67A12.43,12.43,0,0,1,25,37.52Z"/></g></svg>