<svg xmlns="http://www.w3.org/2000/svg" viewBox="0 0 50 50"><defs><style>.cls-1{fill:#fff;}.cls-2{fill:#ce2017;}</style></defs><g id="PSe"><circle id="WHITE" class="cls-1" cx="25" cy="25" r="20.48"/><path d="M35.71,36.62h-4V32.84a.6.6,0,0,0-.6-.59H18.89a.6.6,0,0,0-.6.59v3.78h-4V32.84a4.6,4.6,0,0,1,4.6-4.59H31.11a4.6,4.6,0,0,1,4.6,4.59Z"/><path d="M37.92,12.08A18.23,18.23,0,1,0,43.29,25,18.17,18.17,0,0,0,37.92,12.08ZM25,42.29a17.31,17.31,0,1,1,12.22-5.07A17.25,17.25,0,0,1,25,42.29Z"/><path d="M25,1A24,24,0,1,0,49,25,24,24,0,0,0,25,1Zm0,47A23,23,0,1,1,48,25,23,23,0,0,1,25,48Z"/><path class="cls-2" d="M25,2A23,23,0,1,0,48,25,23,23,0,0,0,25,2ZM37.92,37.92A18.23,18.23,0,1,1,43.29,25,18.17,18.17,0,0,1,37.92,37.92Z"/></g></svg>