<svg xmlns="http://www.w3.org/2000/svg" viewBox="0 0 50 50"><defs><style>.cls-1{fill:#fff;}.cls-2{fill:#ce2017;}</style></defs><g id="raccordement"><polygon points="27.36 40 27.36 48.13 1.99 48.13 1.99 43.4 22.64 43.4 22.64 35.27 27.36 40"/><path class="cls-1" d="M21.64,32.86V42.4H1v6.73H28.36V39.58Zm5.72,15.27H2V43.4H22.64V35.27L27.36,40Z"/><polygon class="cls-2" points="49.01 32.86 49.01 39.58 28.36 39.58 21.64 32.86 49.01 32.86"/><path d="M21.64,32.86l6.72,6.72H49V32.86ZM48,38.58H28.78l-4.73-4.72H48Z"/><polygon points="27.36 1.99 27.36 10.12 22.64 14.85 22.64 6.72 1.99 6.72 1.99 1.99 27.36 1.99"/><path class="cls-1" d="M1,1V7.72H21.64v9.54l6.72-6.72V1Zm26.37,9.13-4.72,4.73V6.72H2V2H27.36Z"/><polygon class="cls-2" points="49.01 10.54 49.01 17.26 21.64 17.26 28.36 10.54 49.01 10.54"/><path d="M28.36,10.54l-6.72,6.72H49V10.54ZM48,16.26h-24l4.73-4.72H48Z"/></g></svg>